{
  "accessors": [
    {
      "bufferView": 2,
      "componentType": 5126,
      "count": 65532,
      "max": [
        301.95068359375,
        89.87666320800781,
        -1052.814208984375
      ],
      "min": [
        -299.62957763671875,
        -179.74392700195312,
        -1674.4407958984375
      ],
      "type": "VEC3"
    },
    {
      "bufferView": 2,
      "byteOffset": 786384,
      "componentType": 5126,
      "count": 65532,
      "max": [
        0.9999979734420776,
        1,
        0.9994570016860962
      ],
      "min": [
        -0.9999985694885254,
        -0.9999990463256836,
        -0.9989745020866394
      ],
      "type": "VEC3"
    },
    {
      "bufferView": 1,
      "componentType": 5126,
      "count": 65532,
      "max": [
        1.0134470462799072,
        2.377639055252075
      ],
      "min": [
        -0.7193490266799927,
        -0.11520499736070633
      ],
      "type": "VEC2"
    },
    {
      "bufferView": 0,
      "componentType": 5125,
      "count": 334140,
      "max": [
        65531
      ],
      "min": [
        0
      ],
      "type": "SCALAR"
    },
    {
      "bufferView": 2,
      "byteOffset": 1572768,
      "componentType": 5126,
      "count": 65532,
      "max": [
        292.9559020996094,
        14.4248046875,
        -1072.6439208984375
      ],
      "min": [
        -299.9200134277344,
        -178.91551208496094,
        -1675.332763671875
      ],
      "type": "VEC3"
    },
    {
      "bufferView": 2,
      "byteOffset": 2359152,
      "componentType": 5126,
      "count": 65532,
      "max": [
        1,
        0.9999996423721313,
        0.9999754428863525
      ],
      "min": [
        -0.9999995231628418,
        -0.9999887943267822,
        -0.9999743700027466
      ],
      "type": "VEC3"
    },
    {
      "bufferView": 1,
      "byteOffset": 524256,
      "componentType": 5126,
      "count": 65532,
      "max": [
        1.2757710218429565,
        2.377639055252075
      ],
      "min": [
        -0.7193490266799927,
        -0.11520499736070633
      ],
      "type": "VEC2"
    },
    {
      "bufferView": 0,
      "byteOffset": 1336560,
      "componentType": 5125,
      "count": 364614,
      "max": [
        65531
      ],
      "min": [
        0
      ],
      "type": "SCALAR"
    },
    {
      "bufferView": 2,
      "byteOffset": 3145536,
      "componentType": 5126,
      "count": 65532,
      "max": [
        302.25982666015625,
        90.02058410644531,
        -1051.103271484375
      ],
      "min": [
        -287.13336181640625,
        -178.96127319335938,
        -1663.5159912109375
      ],
      "type": "VEC3"
    },
    {
      "bufferView": 2,
      "byteOffset": 3931920,
      "componentType": 5126,
      "count": 65532,
      "max": [
        0.9999839067459106,
        0.9999992847442627,
        0.9999862909317017
      ],
      "min": [
        -0.9999992847442627,
        -0.9999986886978149,
        -0.999946117401123
      ],
      "type": "VEC3"
    },
    {
      "bufferView": 1,
      "byteOffset": 1048512,
      "componentType": 5126,
      "count": 65532,
      "max": [
        1.2757710218429565,
        1.9714930057525635
      ],
      "min": [
        -0.7193490266799927,
        1.2996599674224854
      ],
      "type": "VEC2"
    },
    {
      "bufferView": 0,
      "byteOffset": 2795016,
      "componentType": 5125,
      "count": 345759,
      "max": [
        65531
      ],
      "min": [
        0
      ],
      "type": "SCALAR"
    },
    {
      "bufferView": 2,
      "byteOffset": 4718304,
      "componentType": 5126,
      "count": 13853,
      "max": [
        5.9868974685668945,
        -16.20944595336914,
        -1051.57568359375
      ],
      "min": [
        -192.81201171875,
        -178.84323120117188,
        -1664.290283203125
      ],
      "type": "VEC3"
    },
    {
      "bufferView": 2,
      "byteOffset": 4884540,
      "componentType": 5126,
      "count": 13853,
      "max": [
        0.9999997615814209,
        0.9999911785125732,
        0.999549388885498
      ],
      "min": [
        -0.9999803304672241,
        -0.9997323751449585,
        -0.999975323677063
      ],
      "type": "VEC3"
    },
    {
      "bufferView": 1,
      "byteOffset": 1572768,
      "componentType": 5126,
      "count": 13853,
      "max": [
        1.2757710218429565,
        1.9714930057525635
      ],
      "min": [
        1.0277429819107056,
        1.2996599674224854
      ],
      "type": "VEC2"
    },
    {
      "bufferView": 0,
      "byteOffset": 4178052,
      "componentType": 5125,
      "count": 75327,
      "max": [
        13852
      ],
      "min": [
        0
      ],
      "type": "SCALAR"
    }
  ],
  "asset": {
    "extras": {
      "author": "Tabbuso (https://sketchfab.com/Tabbuso)",
      "license": "CC-BY-4.0 (http://creativecommons.org/licenses/by/4.0/)",
      "source": "https://sketchfab.com/3d-models/tshirt-5a21282b2e454d1696547148f617d3d0",
      "title": "Tshirt"
    },
    "generator": "Sketchfab-9.52.0",
    "version": "2.0"
  },
  "bufferViews": [
    {
      "buffer": 0,
      "byteLength": 4479360,
      "byteOffset": 0,
      "name": "floatBufferViews",
      "target": 34963
    },
    {
      "buffer": 0,
      "byteLength": 1683592,
      "byteOffset": 4479360,
      "byteStride": 8,
      "name": "floatBufferViews",
      "target": 34962
    },
    {
      "buffer": 0,
      "byteLength": 5050776,
      "byteOffset": 6162952,
      "byteStride": 12,
      "name": "floatBufferViews",
      "target": 34962
    }
  ],
  "buffers": [
    {
      "uri": "out_data.bin",
      "byteLength": 11213728
    }
  ],
  "materials": [
    {
      "doubleSided": true,
      "name": "FABRIC_1_FRONT_4193",
      "pbrMetallicRoughness": {
        "baseColorFactor": [
          0.7822376075406132,
          0.7822376075406132,
          0.7822376075406132,
          1
        ],
        "metallicFactor": 0.7738920404453119,
        "roughnessFactor": 0.950217062181931
      }
    }
  ],
  "meshes": [
    {
      "primitives": [
        {
          "attributes": {
            "NORMAL": 1,
            "POSITION": 0,
            "TEXCOORD_0": 2
          },
          "indices": 3,
          "material": 0,
          "mode": 4
        }
      ]
    },
    {
      "primitives": [
        {
          "attributes": {
            "NORMAL": 5,
            "POSITION": 4,
            "TEXCOORD_0": 6
          },
          "indices": 7,
          "material": 0,
          "mode": 4
        }
      ]
    },
    {
      "primitives": [
        {
          "attributes": {
            "NORMAL": 9,
            "POSITION": 8,
            "TEXCOORD_0": 10
          },
          "indices": 11,
          "material": 0,
          "mode": 4
        }
      ]
    },
    {
      "primitives": [
        {
          "attributes": {
            "NORMAL": 13,
            "POSITION": 12,
            "TEXCOORD_0": 14
          },
          "indices": 15,
          "material": 0,
          "mode": 4
        }
      ]
    }
  ],
  "nodes": [
    {
      "children": [
        1
      ],
      "name": "RootNode (gltf orientation matrix)",
      "rotation": [
        -0.7071067811865475,
        0,
        0,
        0.7071067811865476
      ]
    },
    {
      "children": [
        2
      ],
      "name": "RootNode (model correction matrix)"
    },
    {
      "children": [
        3
      ],
      "name": "root"
    },
    {
      "children": [
        4
      ],
      "matrix": [
        1,
        0,
        0,
        0,
        0,
        2.220446049250313e-16,
        1,
        0,
        0,
        -1,
        2.220446049250313e-16,
        0,
        0,
        0,
        0,
        1
      ],
      "name": "GLTF_SceneRootNode"
    },
    {
      "children": [
        5,
        6,
        7,
        8
      ],
      "matrix": [
        0.039488013833761215,
        0,
        0,
        0,
        0,
        -6.6571814622282925e-9,
        0.03948801383376065,
        0,
        0,
        -0.03948801383376065,
        -6.6571814622282925e-9,
        0,
        0,
        0,
        0,
        1
      ],
      "name": "t-shirt.002_2"
    },
    {
      "mesh": 0,
      "name": ""
    },
    {
      "mesh": 1,
      "name": ""
    },
    {
      "mesh": 2,
      "name": ""
    },
    {
      "mesh": 3,
      "name": ""
    }
  ],
  "scene": 0,
  "scenes": [
    {
      "name": "OSG_Scene",
      "nodes": [
        0
      ]
    }
  ]
}