{
  "accessors": [
    {
      "bufferView": 2,
      "componentType": 5126,
      "count": 244,
      "max": [
        0.11484003067016602,
        1.4314337968826294,
        0.11712384968996048
      ],
      "min": [
        -0.11639323085546494,
        1.4125871658325195,
        -0.11410947144031525
      ],
      "type": "VEC3"
    },
    {
      "bufferView": 2,
      "byteOffset": 2928,
      "componentType": 5126,
      "count": 244,
      "max": [
        0.99940544366836548,
        1,
        0.99940544366836548
      ],
      "min": [
        -0.99940544366836548,
        -1,
        -0.99940544366836548
      ],
      "type": "VEC3"
    },
    {
      "bufferView": 1,
      "componentType": 5126,
      "count": 244,
      "max": [
        0.65625,
        1
      ],
      "min": [
        0.34374994039535522,
        -7.4505805969238281e-08
      ],
      "type": "VEC2"
    },
    {
      "bufferView": 0,
      "componentType": 5125,
      "count": 960,
      "max": [
        243
      ],
      "min": [
        0
      ],
      "type": "SCALAR"
    },
    {
      "bufferView": 2,
      "byteOffset": 5856,
      "componentType": 5126,
      "count": 230,
      "max": [
        0.083179056644439697,
        0.034209486097097397,
        0.084497109055519104
      ],
      "min": [
        -0.085815168917179108,
        -0.033554326742887497,
        -0.084497138857841492
      ],
      "type": "VEC3"
    },
    {
      "bufferView": 2,
      "byteOffset": 8616,
      "componentType": 5126,
      "count": 230,
      "max": [
        0.99521923065185547,
        -0.097666099667549133,
        0.99521923065185547
      ],
      "min": [
        -0.99521923065185547,
        -1,
        -0.99521929025650024
      ],
      "type": "VEC3"
    },
    {
      "bufferView": 1,
      "byteOffset": 1952,
      "componentType": 5126,
      "count": 230,
      "max": [
        1.0000001192092896,
        0.50000005960464478
      ],
      "min": [
        0,
        0
      ],
      "type": "VEC2"
    },
    {
      "bufferView": 0,
      "byteOffset": 3840,
      "componentType": 5125,
      "count": 1140,
      "max": [
        229
      ],
      "min": [
        0
      ],
      "type": "SCALAR"
    },
    {
      "bufferView": 2,
      "byteOffset": 11376,
      "componentType": 5126,
      "count": 235,
      "max": [
        -0.10004846751689911,
        1.1155918836593628,
        0.0052645187824964523
      ],
      "min": [
        -0.15825994312763214,
        0.12542250752449036,
        -0.040486011654138565
      ],
      "type": "VEC3"
    },
    {
      "bufferView": 2,
      "byteOffset": 14196,
      "componentType": 5126,
      "count": 235,
      "max": [
        1,
        1,
        1
      ],
      "min": [
        -0.90096956491470337,
        -1,
        -1
      ],
      "type": "VEC3"
    },
    {
      "bufferView": 1,
      "byteOffset": 3792,
      "componentType": 5126,
      "count": 235,
      "max": [
        0.65625,
        0.99608248472213745
      ],
      "min": [
        0.35922360420227051,
        0.0039175152778625488
      ],
      "type": "VEC2"
    },
    {
      "bufferView": 0,
      "byteOffset": 8400,
      "componentType": 5125,
      "count": 534,
      "max": [
        234
      ],
      "min": [
        0
      ],
      "type": "SCALAR"
    },
    {
      "bufferView": 2,
      "byteOffset": 17016,
      "componentType": 5126,
      "count": 1030,
      "max": [
        0.095482707023620605,
        3.261324405670166,
        0.095482669770717621
      ],
      "min": [
        -0.095482669770717621,
        2.7678852081298828,
        -0.095482707023620605
      ],
      "type": "VEC3"
    },
    {
      "bufferView": 2,
      "byteOffset": 29376,
      "componentType": 5126,
      "count": 1030,
      "max": [
        0.99846106767654419,
        1,
        0.99846118688583374
      ],
      "min": [
        -0.99846100807189941,
        -1,
        -0.99846088886260986
      ],
      "type": "VEC3"
    },
    {
      "bufferView": 1,
      "byteOffset": 5672,
      "componentType": 5126,
      "count": 1030,
      "max": [
        1,
        1
      ],
      "min": [
        0,
        -7.4505805969238281e-08
      ],
      "type": "VEC2"
    },
    {
      "bufferView": 0,
      "byteOffset": 10536,
      "componentType": 5125,
      "count": 2334,
      "max": [
        1029
      ],
      "min": [
        0
      ],
      "type": "SCALAR"
    },
    {
      "bufferView": 2,
      "byteOffset": 41736,
      "componentType": 5126,
      "count": 366,
      "max": [
        0.10346232354640961,
        2.8746905326843262,
        0.1034623458981514
      ],
      "min": [
        -0.10346232354640961,
        1.4340358972549438,
        -0.10346238315105438
      ],
      "type": "VEC3"
    },
    {
      "bufferView": 2,
      "byteOffset": 46128,
      "componentType": 5126,
      "count": 366,
      "max": [
        0.99998492002487183,
        1,
        0.99998486042022705
      ],
      "min": [
        -0.99998492002487183,
        -0.9996570348739624,
        -0.99998486042022705
      ],
      "type": "VEC3"
    },
    {
      "bufferView": 1,
      "byteOffset": 13912,
      "componentType": 5126,
      "count": 366,
      "max": [
        1,
        1
      ],
      "min": [
        0,
        0
      ],
      "type": "VEC2"
    },
    {
      "bufferView": 0,
      "byteOffset": 19872,
      "componentType": 5125,
      "count": 960,
      "max": [
        365
      ],
      "min": [
        0
      ],
      "type": "SCALAR"
    },
    {
      "bufferView": 2,
      "byteOffset": 50520,
      "componentType": 5126,
      "count": 1199,
      "max": [
        0.1034623458981514,
        1.6231379508972168,
        0.1034623458981514
      ],
      "min": [
        -0.1034623458981514,
        0.10746973752975464,
        -0.10346238315105438
      ],
      "type": "VEC3"
    },
    {
      "bufferView": 2,
      "byteOffset": 64908,
      "componentType": 5126,
      "count": 1199,
      "max": [
        1,
        1,
        1
      ],
      "min": [
        -1,
        -1,
        -1
      ],
      "type": "VEC3"
    },
    {
      "bufferView": 1,
      "byteOffset": 16840,
      "componentType": 5126,
      "count": 1199,
      "max": [
        1,
        1
      ],
      "min": [
        0,
        0
      ],
      "type": "VEC2"
    },
    {
      "bufferView": 0,
      "byteOffset": 23712,
      "componentType": 5125,
      "count": 2838,
      "max": [
        1198
      ],
      "min": [
        0
      ],
      "type": "SCALAR"
    },
    {
      "bufferView": 2,
      "byteOffset": 79296,
      "componentType": 5126,
      "count": 703,
      "max": [
        0.090627945959568024,
        0.1421857476234436,
        0.091998815536499023
      ],
      "min": [
        -0.093369677662849426,
        0.013804614543914795,
        -0.091998852789402008
      ],
      "type": "VEC3"
    },
    {
      "bufferView": 2,
      "byteOffset": 87732,
      "componentType": 5126,
      "count": 703,
      "max": [
        1,
        1,
        1
      ],
      "min": [
        -1,
        -1,
        -1
      ],
      "type": "VEC3"
    },
    {
      "bufferView": 1,
      "byteOffset": 26432,
      "componentType": 5126,
      "count": 703,
      "max": [
        1,
        1
      ],
      "min": [
        0,
        0
      ],
      "type": "VEC2"
    },
    {
      "bufferView": 0,
      "byteOffset": 35064,
      "componentType": 5125,
      "count": 1440,
      "max": [
        702
      ],
      "min": [
        0
      ],
      "type": "SCALAR"
    }
  ],
  "asset": {
    "extras": {
      "author": "Ibragim_M._A (https://sketchfab.com/Ibragim_M._A)",
      "license": "CC-BY-4.0 (http://creativecommons.org/licenses/by/4.0/)",
      "source": "https://sketchfab.com/3d-models/pen-f82fdf42b40e41ec84186e27fb4d4775",
      "title": "Pen"
    },
    "generator": "Sketchfab-10.11.2",
    "version": "2.0"
  },
  "bufferViews": [
    {
      "buffer": 0,
      "byteLength": 40824,
      "byteOffset": 0,
      "name": "floatBufferViews",
      "target": 34963
    },
    {
      "buffer": 0,
      "byteLength": 32056,
      "byteOffset": 40824,
      "byteStride": 8,
      "name": "floatBufferViews",
      "target": 34962
    },
    {
      "buffer": 0,
      "byteLength": 96168,
      "byteOffset": 72880,
      "byteStride": 12,
      "name": "floatBufferViews",
      "target": 34962
    }
  ],
  "buffers": [
    {
      "byteLength": 169048,
      "uri": "pen.bin"
    }
  ],
  "materials": [
    {
      "doubleSided": true,
      "emissiveFactor": [
        0,
        0,
        0
      ],
      "name": "blinn4",
      "pbrMetallicRoughness": {
        "baseColorFactor": [
          0.084415599999999993,
          0.084415599999999993,
          0.084415599999999993,
          1
        ],
        "metallicFactor": 0,
        "roughnessFactor": 0.92074838162494832
      }
    },
    {
      "doubleSided": true,
      "emissiveFactor": [
        0,
        0,
        0
      ],
      "name": "lambert3",
      "pbrMetallicRoughness": {
        "baseColorFactor": [
          0,
          0,
          0,
          1
        ],
        "metallicFactor": 0,
        "roughnessFactor": 0.59999999999999998
      }
    },
    {
      "doubleSided": true,
      "emissiveFactor": [
        0,
        0,
        0
      ],
      "name": "lambert1",
      "pbrMetallicRoughness": {
        "baseColorFactor": [
          0.5,
          0.5,
          0.5,
          1
        ],
        "metallicFactor": 0,
        "roughnessFactor": 0.59999999999999998
      }
    },
    {
      "doubleSided": true,
      "emissiveFactor": [
        0,
        0,
        0
      ],
      "name": "blinn6",
      "pbrMetallicRoughness": {
        "baseColorFactor": [
          0.53896100000000002,
          0.53896100000000002,
          0.53896100000000002,
          1
        ],
        "metallicFactor": 0,
        "roughnessFactor": 0.92074838162494832
      }
    },
    {
      "doubleSided": true,
      "emissiveFactor": [
        0,
        0,
        0
      ],
      "name": "lambert5",
      "pbrMetallicRoughness": {
        "baseColorFactor": [
          1,
          1,
          1,
          1
        ],
        "metallicFactor": 0,
        "roughnessFactor": 0.59999999999999998
      }
    },
    {
      "doubleSided": true,
      "emissiveFactor": [
        0,
        0,
        0
      ],
      "name": "lambert4",
      "pbrMetallicRoughness": {
        "baseColorFactor": [
          1,
          1,
          1,
          1
        ],
        "metallicFactor": 0,
        "roughnessFactor": 0.59999999999999998
      }
    },
    {
      "doubleSided": true,
      "emissiveFactor": [
        0,
        0,
        0
      ],
      "name": "blinn2",
      "pbrMetallicRoughness": {
        "baseColorFactor": [
          0.246753,
          0.246753,
          0.246753,
          1
        ],
        "metallicFactor": 0,
        "roughnessFactor": 0.92074838162494832
      }
    }
  ],
  "meshes": [
    {
      "name": "pen_blinn4_0",
      "primitives": [
        {
          "attributes": {
            "NORMAL": 1,
            "POSITION": 0,
            "TEXCOORD_0": 2
          },
          "indices": 3,
          "material": 0,
          "mode": 4
        }
      ]
    },
    {
      "name": "pen_lambert3_0",
      "primitives": [
        {
          "attributes": {
            "NORMAL": 5,
            "POSITION": 4,
            "TEXCOORD_0": 6
          },
          "indices": 7,
          "material": 1,
          "mode": 4
        }
      ]
    },
    {
      "name": "pen_lambert1_0",
      "primitives": [
        {
          "attributes": {
            "NORMAL": 9,
            "POSITION": 8,
            "TEXCOORD_0": 10
          },
          "indices": 11,
          "material": 2,
          "mode": 4
        }
      ]
    },
    {
      "name": "pen_blinn6_0",
      "primitives": [
        {
          "attributes": {
            "NORMAL": 13,
            "POSITION": 12,
            "TEXCOORD_0": 14
          },
          "indices": 15,
          "material": 3,
          "mode": 4
        }
      ]
    },
    {
      "name": "pen_lambert5_0",
      "primitives": [
        {
          "attributes": {
            "NORMAL": 17,
            "POSITION": 16,
            "TEXCOORD_0": 18
          },
          "indices": 19,
          "material": 4,
          "mode": 4
        }
      ]
    },
    {
      "name": "pen_lambert4_0",
      "primitives": [
        {
          "attributes": {
            "NORMAL": 21,
            "POSITION": 20,
            "TEXCOORD_0": 22
          },
          "indices": 23,
          "material": 5,
          "mode": 4
        }
      ]
    },
    {
      "name": "pen_blinn2_0",
      "primitives": [
        {
          "attributes": {
            "NORMAL": 25,
            "POSITION": 24,
            "TEXCOORD_0": 26
          },
          "indices": 27,
          "material": 6,
          "mode": 4
        }
      ]
    }
  ],
  "nodes": [
    {
      "children": [
        1
      ],
      "name": "RootNode (gltf orientation matrix)",
      "rotation": [
        -0.70710678118654746,
        -0,
        -0,
        0.70710678118654757
      ]
    },
    {
      "children": [
        2
      ],
      "name": "RootNode (model correction matrix)"
    },
    {
      "children": [
        3
      ],
      "matrix": [
        1,
        0,
        0,
        0,
        0,
        0,
        1,
        0,
        0,
        -1,
        0,
        0,
        0,
        0,
        0,
        1
      ],
      "name": "2efd1c5139324127a1a39c9f2ca93fa8.fbx"
    },
    {
      "children": [
        4
      ],
      "name": "RootNode"
    },
    {
      "children": [
        5,
        6,
        7,
        8,
        9,
        10,
        11
      ],
      "name": "pen"
    },
    {
      "mesh": 0,
      "name": "pen_blinn4_0"
    },
    {
      "mesh": 1,
      "name": "pen_lambert3_0"
    },
    {
      "mesh": 2,
      "name": "pen_lambert1_0"
    },
    {
      "mesh": 3,
      "name": "pen_blinn6_0"
    },
    {
      "mesh": 4,
      "name": "pen_lambert5_0"
    },
    {
      "mesh": 5,
      "name": "pen_lambert4_0"
    },
    {
      "mesh": 6,
      "name": "pen_blinn2_0"
    }
  ],
  "scene": 0,
  "scenes": [
    {
      "name": "OSG_Scene",
      "nodes": [
        0
      ]
    }
  ]
}

