{
  "accessors": [
    {
      "bufferView": 1,
      "componentType": 5126,
      "count": 2426,
      "max": [
        0.5932999849319458,
        0.14620000123977661,
        0.6492999792098999
      ],
      "min": [
        0,
        0,
        0
      ],
      "type": "VEC3"
    },
    {
      "bufferView": 1,
      "byteOffset": 29112,
      "componentType": 5126,
      "count": 2426,
      "max": [
        0.99826860427856445,
        0.99992120265960693,
        0.99998414516448975
      ],
      "min": [
        -0.99993062019348145,
        -0.99997782707214355,
        -0.99662435054779053
      ],
      "type": "VEC3"
    },
    {
      "bufferView": 2,
      "componentType": 5126,
      "count": 2426,
      "max": [
        0.99999713897705078,
        0.99684250354766846,
        0.99691134691238403,
        1
      ],
      "min": [
        -0.99905091524124146,
        -0.99702060222625732,
        -0.99773943424224854,
        -1
      ],
      "type": "VEC4"
    },
    {
      "bufferView": 0,
      "componentType": 5125,
      "count": 13038,
      "max": [
        2425
      ],
      "min": [
        0
      ],
      "type": "SCALAR"
    },
    {
      "bufferView": 1,
      "byteOffset": 58224,
      "componentType": 5126,
      "count": 508,
      "max": [
        0.50129997730255127,
        0.10260000079870224,
        0.65130001306533813
      ],
      "min": [
        0.082199990749359131,
        0.028799999505281448,
        0.51440000534057617
      ],
      "type": "VEC3"
    },
    {
      "bufferView": 1,
      "byteOffset": 64320,
      "componentType": 5126,
      "count": 508,
      "max": [
        0.99544519186019897,
        0.99993693828582764,
        0.24319547414779663
      ],
      "min": [
        -0.99544519186019897,
        -0.99994480609893799,
        -0.9093133807182312
      ],
      "type": "VEC3"
    },
    {
      "bufferView": 0,
      "byteOffset": 52152,
      "componentType": 5125,
      "count": 2046,
      "max": [
        507
      ],
      "min": [
        0
      ],
      "type": "SCALAR"
    },
    {
      "bufferView": 1,
      "byteOffset": 70416,
      "componentType": 5126,
      "count": 2352,
      "max": [
        0.50199997425079346,
        0.10260000079870224,
        0.77230000495910645
      ],
      "min": [
        0.081499993801116943,
        0.028100000694394112,
        0.51440000534057617
      ],
      "type": "VEC3"
    },
    {
      "bufferView": 1,
      "byteOffset": 98640,
      "componentType": 5126,
      "count": 2352,
      "max": [
        1,
        0.99999809265136719,
        1
      ],
      "min": [
        -1,
        -0.99999678134918213,
        -1
      ],
      "type": "VEC3"
    },
    {
      "bufferView": 0,
      "byteOffset": 60336,
      "componentType": 5125,
      "count": 13266,
      "max": [
        2351
      ],
      "min": [
        0
      ],
      "type": "SCALAR"
    }
  ],
  "asset": {
    "extras": {
      "author": "feisalkassim (https://sketchfab.com/FeisalKassim)",
      "license": "CC-BY-4.0 (http://creativecommons.org/licenses/by/4.0/)",
      "source": "https://sketchfab.com/models/5263eaaaed8041ef8413746306284bb8",
      "title": "T-Shirt On Hanger"
    },
    "generator": "Sketchfab-3.18.6",
    "version": "2.0"
  },
  "bufferViews": [
    {
      "buffer": 0,
      "byteLength": 113400,
      "byteOffset": 0,
      "name": "floatBufferViews",
      "target": 34963
    },
    {
      "buffer": 0,
      "byteLength": 126864,
      "byteOffset": 113400,
      "byteStride": 12,
      "name": "floatBufferViews",
      "target": 34962
    },
    {
      "buffer": 0,
      "byteLength": 38816,
      "byteOffset": 240264,
      "byteStride": 16,
      "name": "floatBufferViews",
      "target": 34962
    }
  ],
  "buffers": [
    {
      "byteLength": 279080,
      "uri": "tshirt.bin"
    }
  ],
  "materials": [
    {
      "doubleSided": true,
      "emissiveFactor": [
        0,
        0,
        0
      ],
      "name": "03___Default",
      "pbrMetallicRoughness": {
        "baseColorFactor": [
          0.58819999999999995,
          0.58819999999999995,
          0.58819999999999995,
          1
        ],
        "metallicFactor": 0,
        "roughnessFactor": 0.59999999999999998
      }
    },
    {
      "doubleSided": true,
      "emissiveFactor": [
        0,
        0,
        0
      ],
      "name": "04___Default",
      "pbrMetallicRoughness": {
        "baseColorFactor": [
          0.2157,
          0.2157,
          0.2157,
          1
        ],
        "metallicFactor": 0,
        "roughnessFactor": 0.59999999999999998
      }
    }
  ],
  "meshes": [
    {
      "primitives": [
        {
          "attributes": {
            "NORMAL": 1,
            "POSITION": 0,
            "TANGENT": 2
          },
          "indices": 3,
          "material": 0,
          "mode": 4
        }
      ]
    },
    {
      "primitives": [
        {
          "attributes": {
            "NORMAL": 5,
            "POSITION": 4
          },
          "indices": 6,
          "material": 1,
          "mode": 4
        }
      ]
    },
    {
      "primitives": [
        {
          "attributes": {
            "NORMAL": 8,
            "POSITION": 7
          },
          "indices": 9,
          "material": 1,
          "mode": 4
        }
      ]
    }
  ],
  "nodes": [
    {
      "children": [
        1
      ],
      "name": "RootNode (gltf orientation matrix)",
      "rotation": [
        -0.70710678118654746,
        -0,
        -0,
        0.70710678118654757
      ]
    },
    {
      "children": [
        2
      ],
      "name": "RootNode (model correction matrix)"
    },
    {
      "children": [
        3
      ],
      "matrix": [
        1,
        0,
        0,
        0,
        0,
        1,
        0,
        0,
        0,
        0,
        1,
        0,
        -0.29199999570846558,
        -0.058100000023841858,
        -0.63029998540878296,
        1
      ],
      "name": "Shirt on Hanger.obj.cleaner.materialmerger.gles"
    },
    {
      "children": [
        4,
        5,
        6
      ],
      "name": ""
    },
    {
      "mesh": 0,
      "name": ""
    },
    {
      "mesh": 1,
      "name": ""
    },
    {
      "mesh": 2,
      "name": ""
    }
  ],
  "scene": 0,
  "scenes": [
    {
      "name": "OSG_Scene",
      "nodes": [
        0
      ]
    }
  ]
}

